HIERARCHY
ROOT Hips
{
	OFFSET 0.000000 0.000000 0.000000
	CHANNELS 6 Xposition Yposition Zposition Xrotation Yrotation Zrotation
	JOINT LeftUpLeg_virtual
	{
		OFFSET 0.000000 0.000000 0.000000
		CHANNELS 3 Xrotation Yrotation Zrotation
		JOINT LeftUpLeg
		{
			OFFSET 10.205400 -3.823500 0.155100
			CHANNELS 3 Xrotation Yrotation Zrotation
			JOINT LeftLeg
			{
				OFFSET 0.708757 -12.982077 0.567790
				CHANNELS 3 Xrotation Yrotation Zrotation
				JOINT LeftFoot
				{
					OFFSET -0.708756 -10.717838 -2.184338
					CHANNELS 3 Xrotation Yrotation Zrotation
					JOINT LeftToeBase
					{
						OFFSET 0.108149 -7.191104 7.560241
						CHANNELS 3 Xrotation Yrotation Zrotation
						JOINT LeftToe_End
						{
							OFFSET 0.070230 0.081724 4.490308
							CHANNELS 3 Xrotation Yrotation Zrotation
							End Site
							{
								OFFSET 0 0 0
							}
						}
					}
				}
			}
		}
	}
	JOINT RightUpLeg_virtual
	{
		OFFSET 0.000000 0.000000 0.000000
		CHANNELS 3 Xrotation Yrotation Zrotation
		JOINT RightUpLeg
		{
			OFFSET -10.205400 -3.823500 0.005500
			CHANNELS 3 Xrotation Yrotation Zrotation
			JOINT RightLeg
			{
				OFFSET -0.708756 -12.982134 0.610632
				CHANNELS 3 Xrotation Yrotation Zrotation
				JOINT RightFoot
				{
					OFFSET 0.708754 -10.717769 -1.945823
					CHANNELS 3 Xrotation Yrotation Zrotation
					JOINT RightToeBase
					{
						OFFSET -0.108140 -7.191069 7.372968
						CHANNELS 3 Xrotation Yrotation Zrotation
						JOINT RightToe_End
						{
							OFFSET -0.070227 0.081735 4.479403
							CHANNELS 3 Xrotation Yrotation Zrotation
							End Site
							{
								OFFSET 0 0 0
							}
						}
					}
				}
			}
		}
	}
	JOINT Spine_virtual
	{
		OFFSET 0.000000 0.000000 0.000000
		CHANNELS 3 Xrotation Yrotation Zrotation
		JOINT Spine
		{
			OFFSET 0.000000 6.876099 0.125700
			CHANNELS 3 Xrotation Yrotation Zrotation
			JOINT Spine1
			{
				OFFSET 0.000000 5.730043 0.104720
				CHANNELS 3 Xrotation Yrotation Zrotation
				JOINT Spine1_split
				{
					OFFSET 0.000000 5.730043 0.104720
					CHANNELS 3 Xrotation Yrotation Zrotation
					JOINT Spine2
					{
						OFFSET 0.000000 5.730043 0.104720
						CHANNELS 3 Xrotation Yrotation Zrotation
						JOINT Neck_virtual
						{
							OFFSET 0.000000 0.000000 0.000000
							CHANNELS 3 Xrotation Yrotation Zrotation
							JOINT Neck
							{
								OFFSET 0.000000 10.314075 0.188496
								CHANNELS 3 Xrotation Yrotation Zrotation
								JOINT Head
								{
									OFFSET 0.000000 7.643700 -2.377400
									CHANNELS 3 Xrotation Yrotation Zrotation
									JOINT HeadTop_End
									{
										OFFSET 0.000000 43.788605 -13.619600
										CHANNELS 3 Xrotation Yrotation Zrotation
										End Site
										{
											OFFSET 0 0 0
										}
									}
								}
							}
						}
						JOINT LeftShoulder_virtual
						{
							OFFSET 0.000000 0.000000 0.000000
							CHANNELS 3 Xrotation Yrotation Zrotation
							JOINT LeftShoulder
							{
								OFFSET 2.196100 4.412489 0.087492
								CHANNELS 3 Xrotation Yrotation Zrotation
								JOINT LeftShoulder_split
								{
									OFFSET 2.196100 4.412489 0.087492
									CHANNELS 3 Xrotation Yrotation Zrotation
									JOINT LeftArm
									{
										OFFSET 8.771219 -2.981674 -0.026999
										CHANNELS 3 Xrotation Yrotation Zrotation
										JOINT LeftForeArm
										{
											OFFSET 8.512804 0.000000 -0.000000
											CHANNELS 3 Xrotation Yrotation Zrotation
											JOINT LeftHand
											{
												OFFSET 18.484802 0.000000 -0.000000
												CHANNELS 3 Xrotation Yrotation Zrotation
												End Site
												{
													OFFSET 0 0 0
												}
											}
										}
									}
								}
							}
						}
						JOINT RightShoulder_virtual
						{
							OFFSET 0.000000 0.000000 0.000000
							CHANNELS 3 Xrotation Yrotation Zrotation
							JOINT RightShoulder
							{
								OFFSET -2.196100 4.412496 0.070690
								CHANNELS 3 Xrotation Yrotation Zrotation
								JOINT RightShoulder_split
								{
									OFFSET -2.196100 4.412496 0.070690
									CHANNELS 3 Xrotation Yrotation Zrotation
									JOINT RightArm
									{
										OFFSET -8.771282 -2.981682 -0.094208
										CHANNELS 3 Xrotation Yrotation Zrotation
										JOINT RightForeArm
										{
											OFFSET -8.494598 0.000000 0.000000
											CHANNELS 3 Xrotation Yrotation Zrotation
											JOINT RightHand
											{
												OFFSET -18.483803 0.000000 0.000001
												CHANNELS 3 Xrotation Yrotation Zrotation
												End Site
												{
													OFFSET 0 0 0
												}
											}
										}
									}
								}
							}
						}
					}
				}
			}
		}
	}
}
MOTION
Frames: 5
Frame Time: 0.03333333
0.415508 25.209190 1.412598 0.000000 0.000000 0.000000 27.719025 -59.515973 28.124885 -62.826184 16.780795 40.391550 55.560184 -25.171252 -0.782125 -10.463533 5.878050 -17.467184 -6.714153 -6.398421 0.958478 0.000000 0.000000 0.000000 22.755830 -55.212343 24.864638 -35.618938 8.244789 -46.080691 62.884650 12.300361 -3.048119 -46.505945 -7.087281 31.508974 0.296242 3.379311 0.608505 0.000000 0.000000 0.000000 11.670507 -43.663753 16.784206 3.905845 10.289041 -0.058882 5.771862 8.863357 -4.063320 2.183277 -3.365822 2.002501 0.000000 0.000000 0.000000 -9.882544 8.552012 -2.670209 -21.000684 -9.528778 3.446511 3.204546 4.717592 -6.439299 0.000000 0.000000 0.000000 -8.173858 7.896021 -0.758716 2.070047 -24.354732 3.910122 -2.017296 2.709636 -4.300104 3.964046 20.772907 -59.866055 -34.623175 -59.449529 -33.860933 0.000000 0.000000 0.000000 -9.809787 8.335021 -1.706537 -0.726033 6.538059 2.718538 7.354291 3.975382 9.630853 15.587045 -10.677124 42.569318 -40.209747 54.813822 38.397466 0.000000 0.000000 0.000000 
0.103609 25.156654 1.353483 0.000000 0.000000 0.000000 29.810306 -59.332501 29.532703 -63.106577 17.190406 40.274747 55.622738 -25.910077 -0.024742 -10.501347 5.226246 -18.290617 -6.680655 -6.578510 1.817139 0.000000 0.000000 0.000000 24.929934 -54.625736 26.183030 -35.843433 9.156080 -45.237480 64.858151 12.722540 -3.948832 -45.925417 -8.179554 33.601416 -0.963681 3.099399 0.671520 0.000000 0.000000 0.000000 14.233393 -44.153638 18.929246 4.298478 8.782660 0.405654 6.474037 7.436156 -3.734319 4.211833 -5.184946 3.411769 0.000000 0.000000 0.000000 -9.171998 7.428223 -2.304467 -20.684531 -8.255260 4.166251 2.554417 5.050601 -4.620736 0.000000 0.000000 0.000000 -7.794690 6.581034 -0.799561 1.815921 -23.836121 3.207980 -0.822605 -1.547660 -3.059676 8.071121 23.999745 -58.313758 -29.142368 -54.531827 -28.385909 0.000000 0.000000 0.000000 -9.850267 7.128243 -1.459541 -0.491438 6.845173 4.087154 5.420047 2.115844 9.051364 14.062944 -13.583961 43.865968 -48.216419 59.748268 45.864102 0.000000 0.000000 0.000000 
-0.498634 25.082438 1.352934 0.000000 0.000000 0.000000 32.629337 -58.046609 31.737734 -63.604900 17.206104 39.597455 54.783349 -26.112177 0.422763 -10.598504 5.314008 -19.091238 -6.882416 -6.713055 2.677155 0.000000 0.000000 0.000000 28.236873 -53.215069 28.591793 -35.804494 10.057366 -44.390940 66.556826 12.459631 -4.954007 -47.718997 -10.430464 33.907583 0.571658 3.014364 1.065909 0.000000 0.000000 0.000000 18.878525 -43.866822 22.556367 5.103876 5.911724 1.225430 7.733490 4.109562 -3.411934 4.143615 -4.362361 3.901938 0.000000 0.000000 0.000000 -7.892774 4.407328 -2.170188 -19.564997 -6.960493 5.801436 0.397958 5.101347 -1.301208 0.000000 0.000000 0.000000 -6.599836 3.464038 -1.251114 1.951372 -22.423839 3.072581 0.923105 -6.379720 -0.782315 10.567025 28.199568 -55.822976 -21.191516 -48.178778 -20.710221 0.000000 0.000000 0.000000 -8.953313 3.929162 -1.751775 -0.499455 6.532542 6.262461 5.303783 1.839752 9.242554 9.811830 -15.888857 42.799157 -71.074580 65.789229 68.759774 0.000000 0.000000 0.000000 
-1.250455 24.999332 1.409306 0.000000 0.000000 0.000000 35.662682 -55.842326 34.277291 -63.946068 17.037794 38.395635 53.034530 -25.572638 0.439420 -10.640455 6.140821 -19.270255 -7.312698 -6.757102 3.188711 0.000000 0.000000 0.000000 31.669562 -51.155176 31.410353 -35.865965 10.831451 -43.791471 67.651405 11.763594 -5.965038 -50.903580 -13.377153 33.166436 3.848395 3.206755 1.582314 0.000000 0.000000 0.000000 24.688798 -42.547994 26.713546 6.448455 2.224993 2.126632 9.570023 -0.296699 -3.087198 2.213518 -2.349394 3.564696 0.000000 0.000000 0.000000 -6.035148 0.179272 -2.285241 -17.897039 -5.557742 7.381514 -2.885041 4.307410 2.781295 0.000000 0.000000 0.000000 -4.469977 -0.784937 -1.899734 2.535404 -20.775981 3.548910 2.130768 -9.900066 0.968897 9.399107 32.367542 -51.230749 -13.519787 -40.841645 -13.376122 0.000000 0.000000 0.000000 -6.959644 -0.440002 -2.302072 -0.586014 6.085488 9.239501 6.432740 2.575837 9.587560 4.254703 -16.524323 39.117330 -97.220161 66.409888 95.478067 0.000000 0.000000 0.000000 
-2.034865 24.932325 1.519039 0.000000 0.000000 0.000000 38.283743 -52.905556 36.531970 -64.029752 16.862026 36.931840 50.694818 -24.596174 0.177156 -10.589943 7.423198 -18.897639 -7.477859 -6.709021 3.152383 0.000000 0.000000 0.000000 34.720252 -48.489982 34.108428 -35.913872 11.321855 -43.650919 67.857117 11.294000 -7.082914 -54.395551 -16.446988 32.781008 5.856813 3.574854 1.990553 0.000000 0.000000 0.000000 30.188726 -40.617711 30.471762 8.312336 -1.569085 2.906135 12.188378 -4.714030 -2.717133 0.711800 -0.876955 2.318436 0.000000 0.000000 0.000000 -3.548693 -4.251994 -2.548570 -15.863492 -4.124090 8.060523 -6.381412 2.623999 6.542034 0.000000 0.000000 0.000000 -1.406851 -5.134568 -2.503517 3.447221 -19.719164 4.393838 3.469274 -11.618504 2.483420 3.443526 34.889713 -44.142232 -7.053871 -32.829427 -7.374389 0.000000 0.000000 0.000000 -3.770141 -4.858535 -2.819240 -0.672689 5.894695 12.887799 7.890406 3.697157 9.643820 -1.317485 -15.163770 34.010633 -107.682795 65.064382 106.881546 0.000000 0.000000 0.000000 
